<?xml version="1.0" encoding="iso-8859-1"?>
<!-- Generator: Adobe Illustrator 18.0.0, SVG Export Plug-In . SVG Version: 6.00 Build 0)  -->
<!DOCTYPE svg PUBLIC "-//W3C//DTD SVG 1.1//EN" "http://www.w3.org/Graphics/SVG/1.1/DTD/svg11.dtd">
<svg version="1.1" id="Capa_1" xmlns="http://www.w3.org/2000/svg" xmlns:xlink="http://www.w3.org/1999/xlink" x="0px" y="0px"
	 viewBox="0 0 462.866 462.866" style="enable-background:new 0 0 462.866 462.866;" xml:space="preserve">
<g id="windows">
	<g>
		<g>
			<path d="M440.982,221.555c11.659,0,21.885-10.054,21.885-21.72V18.864c0-11.643-9.789-19.796-21.322-18.127l-213.882,31.29
				c-11.534,1.699-20.17,12.625-20.17,24.253v143.555c0,11.666,7.638,21.72,19.267,21.72H440.982z"/>
		</g>
	</g>
	<g>
		<g>
			<path d="M191.532,58.945c0-11.675-11.443-19.842-22.977-18.143L22.539,61.829C11.037,63.528,0,74.454,0,86.105v113.73
				c0,11.666,10.725,21.72,22.384,21.72h143.927c11.66,0,25.222-10.054,25.222-21.72V58.945z"/>
		</g>
	</g>
	<g>
		<g>
			<path d="M22.384,237.516C10.725,237.516,0,248.66,0,260.334v115.67c0,11.667,10.038,22.609,21.543,24.308l146.701,21.339
				c11.534,1.684,23.288-6.469,23.288-18.143V260.334c0-11.674-13.561-22.818-25.222-22.818H22.384z"/>
		</g>
	</g>
	<g>
		<g>
			<path d="M207.492,406.187c0,11.645,8.479,22.57,20.014,24.268l214.535,31.666c11.503,1.698,20.825-6.454,20.825-18.082V260.334
				c0-11.674-10.226-22.818-21.885-22.818H226.759c-11.629,0-19.267,11.145-19.267,22.818V406.187z"/>
		</g>
	</g>
</g>
<g>
</g>
<g>
</g>
<g>
</g>
<g>
</g>
<g>
</g>
<g>
</g>
<g>
</g>
<g>
</g>
<g>
</g>
<g>
</g>
<g>
</g>
<g>
</g>
<g>
</g>
<g>
</g>
<g>
</g>
</svg>
